<?xml version="1.0" encoding="UTF-8"?>
<svg version="1.1" xmlns="http://www.w3.org/2000/svg" width="225" height="225">
<path d="M0 0 C74.25 0 148.5 0 225 0 C225 74.25 225 148.5 225 225 C150.75 225 76.5 225 0 225 C0 150.75 0 76.5 0 0 Z " fill="#FEFEFE" transform="translate(0,0)"/>
<path d="M0 0 C36.20424792 25.55593971 60.6790462 67.55939229 68.65673828 110.81298828 C69.55036263 116.50650672 69.83021503 122.24428944 70 128 C26.68982595 147.45944202 -23.53334236 144.63658981 -67.20678711 128.69262695 C-69 128 -69 128 -71 127 C-68.30768514 102.89586345 -62.60002811 81.39239855 -51 60 C-50.64147949 59.32453125 -50.28295898 58.6490625 -49.91357422 57.953125 C-43.29726715 45.50990676 -35.67794832 34.65815125 -26.078125 24.26953125 C-24.17076738 22.18649595 -22.36027793 20.0524058 -20.5625 17.875 C-19.716875 16.92625 -18.87125 15.9775 -18 15 C-17.34 15 -16.68 15 -16 15 C-15.67 14.01 -15.34 13.02 -15 12 C-13.28561252 10.43579853 -11.5043823 8.94387998 -9.6875 7.5 C-8.72199219 6.7265625 -7.75648437 5.953125 -6.76171875 5.15625 C-4.52600682 3.41068708 -2.27873373 1.68875279 0 0 Z " fill="#102692" transform="translate(112,41)"/>
<path d="M0 0 C15.13399731 14.6610599 25.76098818 31.90842494 34.8125 50.8125 C35.37227539 51.97676514 35.37227539 51.97676514 35.94335938 53.16455078 C42.63653493 67.42247239 42.63653493 67.42247239 42 74 C39.6884626 74.48423511 37.37592629 74.96244112 35.0625 75.4375 C33.77472656 75.70433594 32.48695313 75.97117187 31.16015625 76.24609375 C21.19255949 78.12314677 11.29240999 78.23854183 1.1875 78.25 C0.41153473 78.25167175 -0.36443054 78.25334351 -1.16390991 78.25506592 C-15.33671762 78.2568954 -29.52174063 77.86656147 -43 73 C-35.94437979 45.65107214 -20.12677105 19.70526799 0 0 Z " fill="#FDFDFD" transform="translate(112,78)"/>
<path d="M0 0 C29.49245804 20.81820567 51.0146801 52.70018394 62.5 86.6875 C62.74322998 87.40526611 62.98645996 88.12303223 63.23706055 88.86254883 C64.74672159 93.5699815 65.51409236 98.08018518 66 103 C61.406157 106.24327218 56.56130614 107.36107954 51.1875 108.6875 C49.86202148 109.02491211 49.86202148 109.02491211 48.50976562 109.36914062 C46.3415559 109.9199831 44.17175794 110.46335062 42 111 C41.85046875 110.27941406 41.7009375 109.55882812 41.546875 108.81640625 C37.12150082 90.74612835 27.84439263 73.05843469 17 58 C16.24589844 56.94425781 15.49179688 55.88851562 14.71484375 54.80078125 C5.04726 41.61029815 -6.23465257 30.17372488 -19 20 C-19.66 19.34 -20.32 18.68 -21 18 C-19.625 16.5 -19.625 16.5 -18 15 C-17.34 15 -16.68 15 -16 15 C-15.67 14.01 -15.34 13.02 -15 12 C-13.28561252 10.43579853 -11.5043823 8.94387998 -9.6875 7.5 C-8.72199219 6.7265625 -7.75648437 5.953125 -6.76171875 5.15625 C-4.52600682 3.41068708 -2.27873373 1.68875279 0 0 Z " fill="#1165D8" transform="translate(112,41)"/>
<path d="M0 0 C2.01290353 8.30566989 2.56891497 16.49174287 3 25 C-32.47420868 40.93871006 -78.84394691 43.67110379 -116 32 C-116.33 31.34 -116.66 30.68 -117 30 C-116.34 30 -115.68 30 -115 30 C-114.89042969 29.0821875 -114.78085938 28.164375 -114.66796875 27.21875 C-113.78590186 20.39169571 -112.77669175 14.31066306 -110 8 C-104.01785557 8.47260185 -98.1061257 9.12330639 -92.171875 10.01953125 C-83.71681031 11.20209152 -75.33855111 11.35591261 -66.8125 11.3125 C-66.04587036 11.31034485 -65.27924072 11.3081897 -64.48937988 11.30596924 C-44.87646703 11.21776059 -21.67114123 9.85496559 -3.83007812 0.91235352 C-2 0 -2 0 0 0 Z " fill="#031550" transform="translate(179,144)"/>
</svg>
